<?xml version="1.0"?>
<svg width="1846" height="2439" xmlns="http://www.w3.org/2000/svg" xmlns:svg="http://www.w3.org/2000/svg" enable-background="new 0 0 1846 2439" version="1.1" xml:space="preserve">
 <g class="layer" display="inline">
  <title>Layer 1</title>
  <path d="m1405.9,1358.01l-0.02,-0.33c-0.03,-0.88 -0.07,-1.76 -0.11,-2.63l-0.02,-0.66c-0.04,-0.76 -0.07,-1.52 -0.11,-2.28l-0.04,-0.77c-0.04,-0.75 -0.07,-1.5 -0.11,-2.24l-0.04,-0.72c-0.04,-0.73 -0.08,-1.46 -0.12,-2.19l-0.05,-0.92c-0.04,-0.67 -0.08,-1.34 -0.12,-2l-0.06,-0.95c-0.04,-0.69 -0.09,-1.38 -0.13,-2.06l-0.06,-0.89c-0.04,-0.68 -0.09,-1.37 -0.14,-2.06l-0.06,-0.91c-0.05,-0.72 -0.11,-1.45 -0.16,-2.18l-0.05,-0.74c-0.23,-2.94 -0.47,-5.88 -0.73,-8.81l-0.07,-0.79c-0.06,-0.71 -0.13,-1.42 -0.19,-2.13l-0.09,-0.96c-0.06,-0.63 -0.12,-1.26 -0.18,-1.9l-0.12,-1.15c-0.06,-0.58 -0.11,-1.17 -0.17,-1.75l-0.12,-1.18c-0.06,-0.56 -0.12,-1.12 -0.18,-1.68l-0.14,-1.27c-0.06,-0.55 -0.12,-1.1 -0.18,-1.65l-0.13,-1.22c-0.06,-0.52 -0.12,-1.04 -0.18,-1.55l-0.17,-1.47l-0.13,-1.15c-0.07,-0.57 -0.14,-1.14 -0.21,-1.71l-0.16,-1.28l-0.19,-1.54c-0.11,-0.92 -0.23,-1.85 -0.35,-2.78c-0.09,-0.63 -0.17,-1.26 -0.26,-1.9l-0.11,-0.86c-0.09,-0.63 -0.17,-1.27 -0.26,-1.9l-0.13,-0.94c-0.09,-0.64 -0.18,-1.27 -0.27,-1.91l-0.12,-0.89c-0.09,-0.61 -0.18,-1.21 -0.27,-1.81l-0.15,-1.05c-0.09,-0.61 -0.18,-1.23 -0.28,-1.84l-0.13,-0.89c-0.1,-0.65 -0.2,-1.3 -0.3,-1.94l-0.13,-0.85c-0.1,-0.65 -0.21,-1.31 -0.31,-1.96l-0.12,-0.75c-0.11,-0.69 -0.22,-1.39 -0.34,-2.08l-0.1,-0.58c-0.12,-0.74 -0.24,-1.47 -0.36,-2.21l-0.05,-0.27c-1.05,-6.21 -2.19,-12.38 -3.42,-18.52l-0.02,-0.07c-0.28,-1.42 -0.57,-2.83 -0.87,-4.25l-0.26,-1.23c-0.21,-1 -0.42,-2 -0.63,-3l-0.33,-1.48c-0.2,-0.95 -0.41,-1.89 -0.62,-2.83l-0.32,-1.42c-0.22,-1.01 -0.45,-2.02 -0.69,-3.03l-0.26,-1.16c-0.28,-1.19 -0.56,-2.39 -0.85,-3.58l-0.14,-0.61c-0.7,-2.91 -1.42,-5.81 -2.16,-8.7l-0.08,-0.31c-0.34,-1.33 -0.68,-2.66 -1.03,-3.98l-0.16,-0.58c-0.32,-1.23 -0.65,-2.46 -0.98,-3.68l-0.19,-0.69c-0.35,-1.29 -0.71,-2.58 -1.07,-3.87l-0.09,-0.31c-40.97,-145.96 -135.85,-267.49 -286.81,-318.74c25.29,-22.66 47.98,-49.05 67.43,-76.75c0.63,-0.89 1.25,-1.79 1.87,-2.68l0.04,-0.05c0.38,-0.56 0.77,-1.12 1.16,-1.68l0.06,-0.1c0.4,-0.57 0.79,-1.14 1.18,-1.71l0,-0.02c0.4,-0.57 0.79,-1.15 1.18,-1.74l0.03,-0.03c0.37,-0.56 0.74,-1.11 1.11,-1.66l0.14,-0.21c0.35,-0.52 0.7,-1.04 1.04,-1.57l0.14,-0.21l1.01,-1.53l0.22,-0.33l0.93,-1.42l0.24,-0.38l0.97,-1.49l0.12,-0.18c0.33,-0.52 0.66,-1.04 0.99,-1.56l0.21,-0.32l0.98,-1.55l0.02,-0.03c0.37,-0.58 0.74,-1.17 1.11,-1.76l0,0c1.87,-2.97 3.69,-5.96 5.48,-8.94c4.5,-7.52 8.53,-15.27 12.17,-23.19c0.24,-0.52 0.48,-1.05 0.72,-1.58c1.68,-3.73 3.28,-7.49 4.8,-11.28c0.42,-1.04 0.83,-2.08 1.23,-3.13c0.47,-1.2 0.93,-2.4 1.39,-3.61c0.56,-1.5 1.11,-3.01 1.66,-4.53c0.71,-1.97 1.4,-3.95 2.07,-5.94c2.02,-5.94 3.88,-11.92 5.63,-17.92l0.35,-1.2c0.71,-2.46 1.4,-4.92 2.07,-7.39c0.24,-0.88 0.48,-1.77 0.72,-2.66c1.08,-4.05 2.09,-8.11 3.04,-12.18c0.34,-1.48 0.67,-2.96 1,-4.44c0.24,-1.13 0.48,-2.25 0.72,-3.37c0.17,-0.8 0.33,-1.6 0.49,-2.4c0.69,-3.42 1.33,-6.84 1.93,-10.26c0.13,-0.78 0.26,-1.57 0.39,-2.35c0.21,-1.28 0.42,-2.55 0.62,-3.83c0.1,-0.69 0.21,-1.37 0.31,-2.06c0.21,-1.37 0.4,-2.75 0.59,-4.13c0.29,-2.06 0.55,-4.13 0.8,-6.2c0.18,-1.45 0.34,-2.9 0.5,-4.35c0.14,-1.31 0.27,-2.62 0.4,-3.93c0.07,-0.69 0.13,-1.38 0.19,-2.07c0.07,-0.75 0.14,-1.5 0.2,-2.25c0.11,-1.27 0.21,-2.54 0.3,-3.82c0.11,-1.43 0.2,-2.87 0.29,-4.31c0.05,-0.69 0.09,-1.38 0.13,-2.07c0.11,-2.05 0.21,-4.1 0.29,-6.15c0.05,-1.42 0.09,-2.83 0.13,-4.25c0.06,-2.08 0.09,-4.16 0.11,-6.24c0.01,-0.69 0.01,-1.38 0.02,-2.08c0,-2.08 -0.01,-4.16 -0.04,-6.24c-0.01,-0.69 -0.02,-1.38 -0.04,-2.07c-0.07,-3.47 -0.2,-6.94 -0.37,-10.4c-0.11,-2.08 -0.23,-4.15 -0.37,-6.23c-0.19,-2.77 -0.42,-5.54 -0.67,-8.3c-0.2,-2.07 -0.41,-4.14 -0.64,-6.22c-0.17,-1.57 -0.36,-3.15 -0.57,-4.73c-0.41,-3.16 -0.9,-6.32 -1.53,-9.46c-0.16,-0.78 -0.33,-1.56 -0.5,-2.34c-0.16,-0.7 -0.33,-1.4 -0.5,-2.1l-0.36,-1.38l-0.32,-1.16c-0.65,-2.3 -1.4,-4.57 -2.28,-6.8c-0.3,-0.74 -0.6,-1.48 -0.93,-2.22c-0.32,-0.73 -0.66,-1.46 -1.01,-2.18l-0.54,-1.08c-0.56,-1.08 -1.15,-2.14 -1.78,-3.19c-3.47,-5.76 -8.38,-11.03 -14.27,-14.93l-0.54,-0.35c-5.4,-3.48 -11.6,-5.8 -18.26,-6.32c-1,-0.08 -2,-0.12 -2.98,-0.12c-1.97,0 -3.9,0.14 -5.8,0.42c-7.59,1.12 -14.6,4.37 -21.07,8.73c-0.54,0.36 -1.08,0.73 -1.61,1.11l-1,0.73c-0.57,0.42 -1.14,0.85 -1.7,1.29l-0.87,0.67l-1.45,1.18l-0.83,0.69l-0.69,0.58c-2.38,2.05 -4.68,4.19 -6.9,6.38l-0.69,0.69c-2.31,2.31 -4.53,4.65 -6.65,6.96c-10.84,11.75 -21.68,23.5 -32.51,35.26c10.36,-27.04 18.44,-54.77 24.18,-82.87c0.39,-1.87 0.76,-3.75 1.12,-5.63c0.72,-3.75 1.41,-7.51 2.05,-11.28c0.32,-1.88 0.63,-3.76 0.92,-5.65c0.3,-1.88 0.59,-3.77 0.87,-5.66c0.56,-3.78 1.07,-7.56 1.54,-11.34c0.24,-1.9 0.47,-3.79 0.68,-5.68c0.21,-1.9 0.42,-3.79 0.61,-5.69c0.2,-1.9 0.38,-3.79 0.55,-5.69c0.18,-1.9 0.34,-3.8 0.49,-5.7c0.15,-1.9 0.29,-3.8 0.42,-5.7c0.07,-0.95 0.13,-1.9 0.19,-2.85c0.2,-3.21 0.37,-6.42 0.51,-9.63c0.24,-5.35 0.39,-10.71 0.46,-16.06c0.01,-0.78 0.01,-1.56 0.02,-2.33c0,-0.78 0.01,-1.56 0.01,-2.34c0,-1.17 -0.01,-2.34 -0.02,-3.51c0,-0.78 -0.01,-1.56 -0.02,-2.34l-0.03,-1.2c-0.01,-0.77 -0.03,-1.55 -0.05,-2.32c-0.05,-1.58 -0.11,-3.17 -0.18,-4.75c-0.04,-0.74 -0.07,-1.48 -0.12,-2.22c-0.06,-1.19 -0.14,-2.38 -0.23,-3.57l-0.09,-1.17c-0.12,-1.59 -0.27,-3.19 -0.44,-4.78c-0.08,-0.74 -0.16,-1.47 -0.24,-2.21l-0.15,-1.16l-0.17,-1.32c-0.09,-0.72 -0.19,-1.44 -0.3,-2.16c-0.11,-0.77 -0.23,-1.54 -0.36,-2.31l-0.19,-1.15c-0.13,-0.77 -0.27,-1.54 -0.41,-2.3c-0.14,-0.77 -0.29,-1.53 -0.45,-2.29c-0.94,-4.58 -2.11,-9.1 -3.58,-13.55c-0.24,-0.74 -0.49,-1.48 -0.75,-2.21c-0.39,-1.11 -0.8,-2.21 -1.23,-3.3c-1.14,-2.92 -2.42,-5.8 -3.85,-8.64c-2.6,-5.16 -6.05,-10.31 -10.25,-14.7l-1.02,-1.04c-2.42,-2.39 -5.08,-4.52 -7.95,-6.27l-0.62,-0.37c-1.87,-1.09 -3.83,-2.02 -5.88,-2.75l-0.68,-0.24c-0.51,-0.17 -1.02,-0.32 -1.54,-0.47c-1.12,-0.31 -2.27,-0.56 -3.44,-0.75l-0.83,-0.13l-1.32,-0.15c-0.53,-0.04 -1.06,-0.08 -1.59,-0.1l-1.33,-0.03c-2.43,0 -4.8,0.28 -7.1,0.79l-1.26,0.29c-0.62,0.17 -1.24,0.34 -1.85,0.53l-0.61,0.2c-1.02,0.34 -2.03,0.72 -3.02,1.13l-0.59,0.26c-2.96,1.29 -5.79,2.91 -8.5,4.75l-0.54,0.36c-0.53,0.38 -1.07,0.76 -1.59,1.14l-0.53,0.39c-1.22,0.91 -2.41,1.86 -3.57,2.84l-0.5,0.42c-0.66,0.56 -1.3,1.12 -1.94,1.7l-0.95,0.86c-0.63,0.58 -1.25,1.16 -1.86,1.74l-0.45,0.44c-24.58,23.8 -42.35,53.11 -51.2,84.45c4.76,-20.67 9.52,-41.44 13.12,-62.3c0.23,-1.4 0.47,-2.79 0.7,-4.18c0.34,-2.09 0.67,-4.18 0.99,-6.27c0.21,-1.39 0.42,-2.78 0.61,-4.18c0.2,-1.39 0.39,-2.79 0.58,-4.18c1.11,-8.37 1.98,-16.76 2.53,-25.16c0.27,-4.2 0.47,-8.4 0.57,-12.61c0.03,-1.41 0.06,-2.81 0.07,-4.21c0.03,-2.81 0.02,-5.62 -0.04,-8.43c-0.01,-0.7 -0.03,-1.4 -0.05,-2.11c-0.1,-3.51 -0.27,-7.03 -0.53,-10.56c-0.1,-1.41 -0.21,-2.81 -0.34,-4.22c-0.06,-0.71 -0.13,-1.41 -0.2,-2.12c-3.92,-39.43 -18.02,-78.5 -46.71,-108.5l-0.32,-0.34c-0.85,-0.88 -1.72,-1.72 -2.61,-2.53l-1.15,-1.02c-2.37,-2.04 -4.87,-3.86 -7.48,-5.43c-0.81,-0.49 -1.63,-0.96 -2.46,-1.4c-1.01,-0.54 -2.04,-1.05 -3.08,-1.53l-1.35,-0.6c-0.9,-0.38 -1.8,-0.74 -2.72,-1.07l-1.38,-0.49l-0.76,-0.25c-1.66,-0.53 -3.33,-0.99 -5.03,-1.37c-1.35,-0.3 -2.71,-0.55 -4.07,-0.75c-1.71,-0.24 -3.43,-0.42 -5.15,-0.51c-2.06,-0.11 -4.13,-0.11 -6.19,0c-1.72,0.09 -3.44,0.27 -5.14,0.51c-3.19,0.47 -6.34,1.21 -9.42,2.22c-1.46,0.47 -2.9,1.01 -4.32,1.61c-0.72,0.31 -1.44,0.63 -2.15,0.96c-2.53,1.2 -4.99,2.6 -7.35,4.2c-0.79,0.53 -1.56,1.08 -2.33,1.66c-0.76,0.58 -1.51,1.18 -2.25,1.8c-0.56,0.47 -1.12,0.96 -1.66,1.46c-0.89,0.81 -1.77,1.65 -2.61,2.53l-0.33,0.34c-0.51,0.53 -1.01,1.06 -1.51,1.6l-0.17,0.19l-1.27,1.39l-0.63,0.7l-0.78,0.88l-0.87,1l-0.5,0.58l-1.15,1.36l-0.16,0.19l-1.16,1.41l-0.89,1.11l-0.2,0.26c-26.12,32.87 -37.36,74.26 -38.49,114.73c-1.25,44.99 8.94,89.54 19.08,133.62c-8.85,-31.33 -26.61,-60.64 -51.19,-84.44c-9.65,-9.34 -21.95,-18.4 -36.19,-17.81c-16.29,0.67 -28.46,13.74 -35.13,26.97c-11.44,22.69 -13.13,48.26 -12.82,73.13c0.75,60.93 12.48,121.75 34.59,179.43c-10.84,-11.76 -21.67,-23.51 -32.51,-35.26c-13.62,-14.77 -30.85,-30.98 -52.24,-29.31c-14.21,1.11 -26.34,10.43 -33.07,21.6c-6.74,11.17 -8.92,24.03 -10.33,36.64c-4.91,44.18 -1.22,89.03 10.33,132.2c7.6,28.41 24.07,69.53 41.07,94.14c28.11,40.69 56.26,72.92 84.15,97.83c-85.57,29.9 -162.71,82.92 -220.95,154.05c-39.19,47.87 -68.15,103.32 -85.27,162.75c-48.81,169.45 -4.56,351.74 47.68,514.83c6.13,19.12 12.5,38.16 19.14,57.11c30.6,87.38 66.85,172.86 109.9,254.85c0.99,1.9 1.99,3.79 2.99,5.69c0.47,0.88 0.94,1.77 1.41,2.65c0.6,1.13 1.2,2.26 1.81,3.39c1.12,2.11 2.26,4.21 3.39,6.31l0.3,0.56c1.89,3.5 3.8,7.03 5.72,10.61c0.64,1.19 1.28,2.39 1.92,3.59c5.14,9.6 10.4,19.47 15.79,29.48c1.01,1.88 2.02,3.76 3.04,5.65c0.68,1.26 1.37,2.52 2.05,3.78c1.03,1.9 2.06,3.79 3.09,5.69c0.7,1.27 1.39,2.54 2.08,3.81c1.74,3.17 3.5,6.35 5.27,9.54c0.7,1.27 1.41,2.55 2.13,3.82c1.07,1.91 2.14,3.83 3.22,5.74c0.36,0.64 0.72,1.28 1.08,1.92c1.09,1.91 2.17,3.82 3.27,5.73c1.1,1.92 2.2,3.83 3.31,5.74c0.73,1.27 1.48,2.54 2.22,3.82c0.37,0.63 0.74,1.27 1.12,1.9c0.74,1.28 1.49,2.54 2.25,3.81s1.5,2.54 2.26,3.8c0.76,1.27 1.52,2.53 2.28,3.79c0.77,1.27 1.53,2.53 2.3,3.79c0.77,1.25 1.54,2.51 2.32,3.76c0.78,1.26 1.55,2.51 2.34,3.76c0.78,1.25 1.56,2.5 2.35,3.74c1.81,2.86 3.64,5.71 5.49,8.55c1.63,2.5 3.27,4.99 4.93,7.46c1.89,2.82 3.8,5.62 5.73,8.4c0.7,1.02 1.41,2.03 2.11,3.04c0.42,0.6 0.84,1.19 1.26,1.79c18.48,26.11 38.64,50.06 60.94,69.43c5.37,4.66 10.88,8.85 16.5,12.58l0.9,0.59c2.07,1.36 4.15,2.65 6.25,3.88l1.35,0.78c5.88,3.37 11.87,6.27 17.94,8.72c1.87,0.76 3.74,1.47 5.63,2.14c3.3,1.18 6.62,2.23 9.96,3.16l1.43,0.39c1.91,0.51 3.83,0.98 5.76,1.41l1.44,0.32c0.88,0.19 1.77,0.37 2.66,0.54c1.12,0.22 2.25,0.42 3.38,0.62c0.81,0.14 1.63,0.27 2.44,0.39c0.56,0.09 1.12,0.18 1.69,0.26l1.46,0.2c3.89,0.52 7.8,0.89 11.73,1.11l1.47,0.08c1.47,0.07 2.95,0.12 4.42,0.15l1.48,0.03c1.47,0.01 2.95,0.01 4.43,-0.01c0.99,-0.01 1.97,-0.04 2.96,-0.07c1.48,-0.04 2.96,-0.11 4.44,-0.2c0.99,-0.05 1.98,-0.12 2.97,-0.19c1.48,-0.11 2.96,-0.24 4.44,-0.39l1.49,-0.15c1.48,-0.16 2.96,-0.34 4.44,-0.53c0.99,-0.14 1.98,-0.27 2.97,-0.42c3.46,-0.51 6.92,-1.12 10.37,-1.82c0.98,-0.21 1.97,-0.41 2.95,-0.63c0.99,-0.22 1.97,-0.44 2.96,-0.67c1.47,-0.35 2.95,-0.71 4.42,-1.09l1.47,-0.38c0.98,-0.26 1.96,-0.53 2.94,-0.8c0.98,-0.28 1.96,-0.56 2.94,-0.85l1.47,-0.44c0.97,-0.29 1.95,-0.59 2.92,-0.9l1.47,-0.47c1.45,-0.48 2.91,-0.97 4.37,-1.47c2.91,-1.01 5.81,-2.09 8.7,-3.21c0.96,-0.38 1.92,-0.76 2.88,-1.15c1.3,-0.53 2.59,-1.07 3.89,-1.62c1.72,-0.73 3.44,-1.48 5.15,-2.26c1.75,-0.79 3.5,-1.6 5.24,-2.43c0.94,-0.45 1.88,-0.91 2.82,-1.37c3.45,-1.7 6.88,-3.48 10.27,-5.33c3.53,-1.93 7.03,-3.94 10.49,-6.02c0.9,-0.55 1.81,-1.1 2.71,-1.65l1.34,-0.84c2.25,-1.4 4.47,-2.83 6.68,-4.29c0.74,-0.49 1.47,-0.98 2.21,-1.48c0.58,-0.39 1.16,-0.79 1.74,-1.18c0.57,-0.39 1.14,-0.79 1.71,-1.18l1.45,-1.01c0.68,-0.49 1.37,-0.97 2.05,-1.46c1.3,-0.93 2.58,-1.86 3.86,-2.81c0.85,-0.63 1.7,-1.26 2.55,-1.9c5.13,-3.88 10.14,-7.91 15.01,-12.09c0.7,-0.59 1.39,-1.19 2.07,-1.78c7.99,-6.96 15.58,-14.29 22.71,-21.89l0.13,-0.14c1.36,-1.45 2.7,-2.92 4.03,-4.39l0.21,-0.23c0.61,-0.68 1.22,-1.37 1.83,-2.06l0.24,-0.27c0.59,-0.68 1.18,-1.35 1.77,-2.03l1.28,-1.5c0.9,-1.04 1.78,-2.09 2.65,-3.15l0.34,-0.41c1.17,-1.42 2.33,-2.85 3.47,-4.29c0.77,-0.96 1.53,-1.93 2.28,-2.91c1.15,-1.49 2.29,-2.99 3.41,-4.5c1.12,-1.51 2.21,-3.02 3.29,-4.54l0.51,-0.71c0.39,-0.57 0.79,-1.14 1.19,-1.71c1.03,-1.48 2.04,-2.97 3.03,-4.47c0.35,-0.54 0.71,-1.08 1.06,-1.62l0.56,-0.86c0.55,-0.85 1.09,-1.69 1.62,-2.54c1.07,-1.7 2.11,-3.4 3.13,-5.11c0.5,-0.85 1.01,-1.7 1.5,-2.56l0.61,-1.05c0.98,-1.71 1.93,-3.43 2.85,-5.14l0.62,-1.17c0.76,-1.41 1.49,-2.83 2.21,-4.26l0.71,-1.42c64.19,-130.07 120.47,-264.75 180.18,-397c1.93,-4.27 3.86,-8.53 5.79,-12.8c8.76,-19.28 17.19,-38.47 25.19,-57.65c1.15,-2.74 2.28,-5.48 3.4,-8.22c2.05,-4.98 4.06,-9.96 6.04,-14.94c0.4,-1 0.8,-1.99 1.19,-2.99c0.79,-1.99 1.57,-3.98 2.35,-5.98c0.77,-1.99 1.54,-3.98 2.31,-5.98c0.38,-0.99 0.76,-1.99 1.14,-2.99c0.76,-1.99 1.52,-3.99 2.27,-5.98c0.75,-2 1.49,-3.99 2.23,-5.99c1.1,-2.99 2.19,-5.99 3.27,-8.99c0.72,-2 1.43,-4 2.14,-6c0.35,-1 0.7,-2 1.05,-3c0.71,-2 1.4,-4 2.09,-6.01c1.03,-3 2.05,-6.01 3.05,-9.02c0.33,-1 0.67,-2 1,-3.01c0.99,-3.01 1.96,-6.02 2.93,-9.04c0.64,-2.01 1.27,-4.02 1.9,-6.04c0.31,-1 0.62,-2.01 0.93,-3.02c0.62,-2.02 1.23,-4.03 1.84,-6.05c0.3,-1.01 0.6,-2.02 0.9,-3.03c0.6,-2.02 1.19,-4.04 1.78,-6.06c0.58,-2.03 1.16,-4.05 1.72,-6.08c1.43,-5.06 2.8,-10.14 4.12,-15.23c0.34,-1.28 0.67,-2.56 0.99,-3.83c0.71,-2.8 1.42,-5.61 2.1,-8.41c0.25,-1.02 0.49,-2.05 0.74,-3.07c0.49,-2.05 0.97,-4.09 1.44,-6.15c1.61,-6.97 3.12,-13.97 4.52,-20.99l0.23,-1.14c2.64,-13.27 4.91,-26.66 6.78,-40.17c0.15,-1.06 0.29,-2.11 0.43,-3.16c0.27,-1.99 0.52,-3.99 0.77,-5.98c0.15,-1.18 0.29,-2.36 0.43,-3.54c1.89,-15.84 3.21,-31.88 3.92,-48.14l0.01,-0.27c0.7,-16.27 0.79,-32.76 0.2,-49.52c-0.02,-1.01 -0.06,-2.01 -0.1,-3.01z" fill="#F6A44C" id="svg_1" transform="matrix(1 0 0 1 0 0)"/>
  <path d="m1229.02,601.53c-0.01,-0.69 -0.03,-1.38 -0.04,-2.08c-0.07,-3.46 -0.2,-6.93 -0.37,-10.39c-0.11,-2.08 -0.23,-4.15 -0.37,-6.23c-0.19,-2.77 -0.42,-5.54 -0.68,-8.3c-0.19,-2.07 -0.4,-4.15 -0.63,-6.22c-0.17,-1.57 -0.36,-3.15 -0.57,-4.73c-0.41,-3.16 -0.91,-6.33 -1.54,-9.46c-0.15,-0.78 -0.32,-1.56 -0.5,-2.34c-0.15,-0.7 -0.32,-1.4 -0.49,-2.1l-0.36,-1.38l-0.32,-1.16c-0.65,-2.3 -1.4,-4.57 -2.28,-6.8c-0.3,-0.75 -0.61,-1.48 -0.93,-2.22c-0.32,-0.73 -0.66,-1.46 -1.01,-2.18l-0.55,-1.08c-0.55,-1.08 -1.14,-2.14 -1.77,-3.19c-3.48,-5.76 -8.38,-11.03 -14.27,-14.93l-0.54,-0.35c-5.4,-3.48 -11.6,-5.8 -18.26,-6.32c-1,-0.08 -2,-0.12 -2.98,-0.12c-1.97,0 -3.91,0.14 -5.8,0.42c-7.59,1.12 -14.61,4.37 -21.07,8.73c-0.54,0.36 -1.08,0.73 -1.61,1.11l-1,0.73c-0.57,0.42 -1.14,0.85 -1.7,1.28l-0.87,0.68l-1.45,1.18l-0.83,0.69l-0.69,0.58c-2.38,2.05 -4.68,4.19 -6.9,6.38l-0.7,0.69c-2.3,2.31 -4.52,4.65 -6.64,6.96c-10.84,11.75 -21.68,23.5 -32.52,35.26c10.37,-27.04 18.45,-54.77 24.19,-82.87c0.39,-1.88 0.76,-3.75 1.12,-5.63c0.72,-3.75 1.41,-7.51 2.05,-11.28c0.32,-1.88 0.63,-3.77 0.92,-5.65c0.3,-1.89 0.59,-3.77 0.87,-5.66c0.56,-3.78 1.07,-7.56 1.54,-11.34c0.24,-1.9 0.47,-3.79 0.68,-5.69c0.21,-1.89 0.42,-3.79 0.61,-5.68c0.2,-1.9 0.38,-3.8 0.55,-5.69c0.17,-1.9 0.34,-3.8 0.49,-5.7c0.15,-1.9 0.29,-3.8 0.42,-5.7c0.06,-0.95 0.13,-1.9 0.19,-2.85c0.2,-3.21 0.37,-6.42 0.51,-9.63c0.24,-5.35 0.39,-10.71 0.45,-16.06c0.01,-0.78 0.02,-1.56 0.03,-2.34c0,-0.77 0.01,-1.55 0.01,-2.33c0,-1.17 -0.01,-2.34 -0.02,-3.51c0,-0.78 -0.01,-1.56 -0.03,-2.35l-0.02,-1.19c-0.01,-0.78 -0.03,-1.55 -0.05,-2.32c-0.05,-1.58 -0.11,-3.17 -0.18,-4.75c-0.04,-0.74 -0.08,-1.48 -0.12,-2.22c-0.07,-1.19 -0.14,-2.38 -0.23,-3.57l-0.09,-1.17c-0.13,-1.6 -0.27,-3.19 -0.44,-4.78c-0.08,-0.74 -0.16,-1.48 -0.25,-2.21l-0.14,-1.17l-0.17,-1.31c-0.09,-0.72 -0.19,-1.44 -0.3,-2.16c-0.11,-0.77 -0.23,-1.54 -0.36,-2.31l-0.19,-1.15c-0.13,-0.77 -0.27,-1.54 -0.41,-2.3c-0.14,-0.77 -0.29,-1.53 -0.45,-2.29c-0.94,-4.58 -2.11,-9.1 -3.58,-13.55c-0.24,-0.74 -0.49,-1.48 -0.75,-2.21c-0.39,-1.11 -0.8,-2.21 -1.23,-3.3c-1.14,-2.92 -2.42,-5.8 -3.85,-8.64c-2.6,-5.17 -6.05,-10.31 -10.25,-14.7l-1.02,-1.04c-2.42,-2.39 -5.08,-4.52 -7.95,-6.27l-0.62,-0.37c-1.87,-1.09 -3.83,-2.02 -5.88,-2.75l-0.68,-0.24c-0.51,-0.17 -1.03,-0.32 -1.55,-0.47c-1.12,-0.31 -2.26,-0.56 -3.43,-0.75l-0.83,-0.13l-1.32,-0.15c-0.53,-0.04 -1.06,-0.08 -1.59,-0.1l-1.33,-0.03c-2.43,0 -4.8,0.28 -7.1,0.79l-1.26,0.29c-0.62,0.16 -1.24,0.34 -1.85,0.53l-0.61,0.2c-1.02,0.34 -2.03,0.72 -3.02,1.13l-0.59,0.26c-2.96,1.29 -5.8,2.91 -8.5,4.74l-0.54,0.37c-0.53,0.37 -1.07,0.75 -1.59,1.14l-0.53,0.39c-1.22,0.91 -2.41,1.86 -3.57,2.84l-0.5,0.42c-0.66,0.56 -1.3,1.12 -1.94,1.7l-0.95,0.86c-0.63,0.58 -1.25,1.16 -1.86,1.74l-0.45,0.44c-24.58,23.8 -42.35,53.11 -51.2,84.44c4.76,-20.66 9.52,-41.43 13.11,-62.3c0.24,-1.39 0.48,-2.78 0.71,-4.17c0.34,-2.09 0.67,-4.18 0.99,-6.27c0.21,-1.39 0.41,-2.78 0.61,-4.18c0.2,-1.39 0.39,-2.79 0.58,-4.18c1.11,-8.37 1.98,-16.76 2.53,-25.16c0.27,-4.2 0.46,-8.41 0.57,-12.61c0.03,-1.41 0.06,-2.81 0.07,-4.21c0.03,-2.81 0.02,-5.62 -0.04,-8.43c-0.01,-0.7 -0.03,-1.41 -0.05,-2.11c-0.1,-3.51 -0.27,-7.04 -0.53,-10.56c-0.1,-1.41 -0.21,-2.82 -0.34,-4.22c-0.06,-0.71 -0.13,-1.41 -0.2,-2.12c-3.92,-39.43 -18.02,-78.5 -46.71,-108.5l-0.32,-0.34c-0.85,-0.88 -1.72,-1.72 -2.61,-2.53l-1.16,-1.02c-2.36,-2.04 -4.87,-3.86 -7.48,-5.43c-0.8,-0.49 -1.62,-0.96 -2.45,-1.4c-1.01,-0.55 -2.04,-1.05 -3.09,-1.53l-1.34,-0.6c-0.9,-0.38 -1.81,-0.74 -2.72,-1.08l-1.38,-0.48l-0.76,-0.25c-1.66,-0.54 -3.34,-0.99 -5.03,-1.37c-1.35,-0.3 -2.71,-0.55 -4.07,-0.75c-1.71,-0.25 -3.43,-0.42 -5.15,-0.51c-2.06,-0.11 -4.13,-0.11 -6.19,0c-1.72,0.09 -3.44,0.26 -5.14,0.51c-3.19,0.47 -6.34,1.21 -9.42,2.22c-1.46,0.47 -2.9,1.01 -4.32,1.61c-0.72,0.31 -1.44,0.63 -2.15,0.96c-2.53,1.2 -4.99,2.6 -7.35,4.2c-0.79,0.53 -1.56,1.08 -2.33,1.66c-0.76,0.57 -1.51,1.17 -2.25,1.79c-0.56,0.48 -1.12,0.97 -1.66,1.47c-0.89,0.81 -1.77,1.65 -2.61,2.53l-0.33,0.33c-0.51,0.54 -1.01,1.07 -1.51,1.61l-0.17,0.19l-1.27,1.38l-0.63,0.71l-0.78,0.88l-0.87,1l-0.5,0.58l-1.15,1.35l-0.16,0.2l-1.16,1.41l-0.89,1.11l-0.2,0.26c-26.12,32.87 -37.36,74.26 -38.49,114.73c-1.25,44.99 8.94,89.54 19.08,133.62c-8.85,-31.33 -26.62,-60.64 -51.2,-84.44c-9.64,-9.34 -21.94,-18.4 -36.18,-17.81c-16.29,0.67 -28.46,13.74 -35.13,26.97c-11.44,22.69 -13.13,48.26 -12.82,73.12c0.75,60.94 12.47,121.76 34.59,179.43c-10.84,-11.75 -21.68,-23.5 -32.51,-35.26c-13.62,-14.76 -30.85,-30.97 -52.25,-29.3c-14.2,1.11 -26.33,10.43 -33.07,21.6c-6.73,11.17 -8.91,24.03 -10.32,36.64c-4.92,44.17 -1.22,89.03 10.32,132.2c7.61,28.41 24.08,69.53 41.08,94.14c28.11,40.69 56.26,72.92 84.15,97.83l0.05,-0.02c51.9,-18.13 106.89,-27.76 162.64,-27.76c61.95,0 117.74,9.26 167.44,26.13l0.01,0c25.29,-22.66 47.98,-49.04 67.44,-76.74c0.62,-0.89 1.25,-1.79 1.87,-2.69l0.03,-0.04c0.39,-0.56 0.78,-1.12 1.16,-1.69l0.07,-0.09c0.39,-0.57 0.78,-1.14 1.17,-1.72l0.01,-0.01c0.4,-0.58 0.79,-1.16 1.18,-1.74l0.02,-0.04c0.38,-0.55 0.75,-1.1 1.12,-1.66l0.14,-0.2c0.35,-0.52 0.69,-1.05 1.04,-1.57l0.14,-0.21l1.01,-1.53l0.22,-0.33l0.92,-1.43l0.25,-0.38l0.97,-1.49l0.11,-0.18c0.34,-0.51 0.67,-1.03 1,-1.55l0.21,-0.33l0.98,-1.54l0.02,-0.03c0.37,-0.59 0.74,-1.17 1.1,-1.76l0.01,0c1.86,-2.98 3.69,-5.96 5.48,-8.95c4.5,-7.52 8.53,-15.27 12.16,-23.18c0.25,-0.53 0.49,-1.06 0.73,-1.58c1.68,-3.73 3.27,-7.49 4.79,-11.28c0.42,-1.04 0.83,-2.08 1.24,-3.13c0.47,-1.2 0.93,-2.4 1.38,-3.61c0.57,-1.51 1.12,-3.02 1.66,-4.53c0.71,-1.98 1.4,-3.96 2.08,-5.94c2.02,-5.94 3.88,-11.93 5.63,-17.93l0.34,-1.19c0.71,-2.46 1.4,-4.92 2.08,-7.39c0.24,-0.89 0.48,-1.77 0.71,-2.66c1.09,-4.05 2.1,-8.11 3.04,-12.19c0.35,-1.47 0.68,-2.96 1,-4.44c0.25,-1.12 0.49,-2.24 0.72,-3.37c0.17,-0.8 0.34,-1.6 0.5,-2.4c0.69,-3.41 1.33,-6.83 1.92,-10.26c0.14,-0.78 0.27,-1.56 0.4,-2.34c0.21,-1.28 0.41,-2.56 0.61,-3.83c0.11,-0.69 0.21,-1.38 0.32,-2.06c0.2,-1.38 0.4,-2.75 0.59,-4.13c0.28,-2.07 0.55,-4.13 0.8,-6.2c0.17,-1.45 0.34,-2.9 0.49,-4.36c0.14,-1.31 0.28,-2.61 0.4,-3.92c0.07,-0.69 0.14,-1.38 0.2,-2.08c0.07,-0.74 0.13,-1.49 0.19,-2.24c0.11,-1.27 0.21,-2.55 0.31,-3.82c0.1,-1.44 0.2,-2.87 0.29,-4.31c0.04,-0.69 0.08,-1.39 0.12,-2.08c0.11,-2.05 0.21,-4.1 0.29,-6.15c0.05,-1.41 0.1,-2.83 0.14,-4.24c0.05,-2.08 0.09,-4.16 0.11,-6.24c0.01,-0.69 0.01,-1.39 0.01,-2.08c0.01,-2.08 0,-4.16 -0.03,-6.24z" fill="#0F7433" id="svg_2" transform="matrix(1 0 0 1 0 0)"/>
  <path d="m870.57,198.42c7.8,-19.53 19.29,-37.45 35.26,-52.43c3.99,-3.4 9.3,2.32 5.61,6.08c-11.61,15.21 -19.95,32.49 -25.82,50.69c16.48,5.3 30.9,12.26 40.4,24.13c63.09,80.31 -11.48,183.56 17.2,263.86c5.74,17.21 68.84,-11.47 80.31,17.21c22.94,63.09 -51.63,114.72 -34.42,177.81c5.74,34.42 74.57,45.89 57.36,86.04c-34.41,103.25 -137.66,0 -206.49,28.68c-43.11,21.56 -91.28,38.04 -134.99,25.69c20.41,26.25 40.8,48.19 61.06,66.28c51.89,-18.13 106.88,-27.76 162.64,-27.76c61.94,0 117.73,9.26 167.44,26.13c26.11,-23.39 49.45,-50.74 69.31,-79.42l0.04,-0.05c0.38,-0.56 0.77,-1.12 1.16,-1.69l0.06,-0.09c0.4,-0.57 0.79,-1.14 1.18,-1.72l0,-0.01c0.4,-0.58 0.79,-1.16 1.18,-1.74l0.03,-0.04c0.37,-0.55 0.74,-1.1 1.11,-1.66l0.14,-0.2c0.35,-0.52 0.7,-1.05 1.04,-1.57l0.14,-0.21l1.01,-1.53l0.22,-0.33l0.93,-1.42l0.25,-0.38l0.96,-1.5l0.12,-0.18c0.33,-0.51 0.66,-1.03 0.99,-1.55l0.21,-0.33l0.98,-1.54l0.02,-0.03c0.37,-0.59 0.74,-1.17 1.11,-1.76l0,0c1.87,-2.98 3.69,-5.96 5.48,-8.95c4.81,-8.02 9.07,-16.3 12.89,-24.76c1.68,-3.73 3.28,-7.49 4.8,-11.28c0.42,-1.04 0.83,-2.08 1.24,-3.13c0.46,-1.2 0.93,-2.4 1.38,-3.61c0.56,-1.51 1.11,-3.02 1.66,-4.53c0.71,-1.98 1.4,-3.96 2.08,-5.94c2.01,-5.94 3.88,-11.92 5.62,-17.92l0.35,-1.2c0.71,-2.46 1.4,-4.92 2.07,-7.39c0.24,-0.89 0.48,-1.77 0.72,-2.66c1.08,-4.05 2.09,-8.11 3.04,-12.18c0.34,-1.48 0.67,-2.96 1,-4.45c0.24,-1.12 0.48,-2.24 0.72,-3.36c0.17,-0.8 0.33,-1.6 0.49,-2.41c0.69,-3.41 1.33,-6.83 1.93,-10.25c0.13,-0.79 0.26,-1.57 0.39,-2.35c0.21,-1.28 0.42,-2.55 0.62,-3.83c0.1,-0.69 0.21,-1.37 0.31,-2.06c0.21,-1.38 0.4,-2.75 0.59,-4.13c0.29,-2.06 0.55,-4.13 0.8,-6.2c0.18,-1.45 0.34,-2.9 0.5,-4.36c0.14,-1.3 0.27,-2.61 0.4,-3.92c0.07,-0.69 0.13,-1.38 0.19,-2.07c0.07,-0.75 0.14,-1.5 0.2,-2.25c0.11,-1.27 0.21,-2.54 0.3,-3.82c0.11,-1.43 0.2,-2.87 0.29,-4.31c0.05,-0.69 0.09,-1.38 0.13,-2.08c0.11,-2.05 0.21,-4.09 0.29,-6.15c0.05,-1.41 0.09,-2.82 0.13,-4.24c0.06,-2.08 0.1,-4.16 0.11,-6.24c0.01,-0.69 0.01,-1.38 0.02,-2.08c0,-2.08 -0.01,-4.16 -0.04,-6.24c-0.01,-0.69 -0.02,-1.38 -0.04,-2.08c-0.07,-3.46 -0.2,-6.93 -0.37,-10.39c-0.11,-2.08 -0.23,-4.16 -0.37,-6.23c-0.19,-2.77 -0.42,-5.54 -0.67,-8.3c-0.2,-2.07 -0.41,-4.15 -0.64,-6.22c-0.17,-1.57 -0.36,-3.16 -0.57,-4.73c-0.41,-3.17 -0.9,-6.33 -1.53,-9.46c-0.16,-0.78 -0.33,-1.56 -0.5,-2.34c-0.16,-0.7 -0.33,-1.4 -0.5,-2.1l-0.36,-1.39l-0.32,-1.15c-0.65,-2.3 -1.4,-4.57 -2.28,-6.8c-0.3,-0.75 -0.6,-1.49 -0.93,-2.22c-0.32,-0.73 -0.66,-1.46 -1.01,-2.18l-0.54,-1.08c-0.56,-1.08 -1.15,-2.14 -1.78,-3.19c-3.47,-5.76 -8.38,-11.03 -14.27,-14.93l-0.54,-0.35c-5.4,-3.48 -11.6,-5.8 -18.26,-6.32c-1,-0.08 -2,-0.12 -2.98,-0.12c-10.51,-0.02 -19.97,4.21 -28.48,10.26l-1,0.73c-0.57,0.42 -1.14,0.85 -1.7,1.28l-0.87,0.68l-1.45,1.18l-0.83,0.69l-0.69,0.58c-2.38,2.04 -4.68,4.19 -6.9,6.38l-0.69,0.69c-2.31,2.31 -4.53,4.65 -6.65,6.96c-10.84,11.75 -21.68,23.5 -32.51,35.26c10.36,-27.04 18.45,-54.77 24.19,-82.87c0.38,-1.88 0.75,-3.75 1.11,-5.63c0.73,-3.75 1.41,-7.51 2.05,-11.28c0.32,-1.88 0.63,-3.77 0.93,-5.65c0.3,-1.89 0.58,-3.77 0.86,-5.66c0.56,-3.78 1.07,-7.56 1.55,-11.35c0.23,-1.89 0.46,-3.78 0.67,-5.68c0.22,-1.89 0.42,-3.79 0.61,-5.68c0.2,-1.9 0.38,-3.8 0.55,-5.7c0.18,-1.89 0.34,-3.79 0.49,-5.69c0.15,-1.9 0.29,-3.8 0.42,-5.7c0.07,-0.95 0.13,-1.9 0.19,-2.85c0.54,-8.56 0.86,-17.12 0.97,-25.69c0.02,-1.56 0.03,-3.11 0.03,-4.67c0,-1.17 -0.01,-2.34 -0.01,-3.51c-0.01,-0.78 -0.02,-1.56 -0.03,-2.35l-0.03,-1.19c-0.01,-0.78 -0.03,-1.55 -0.05,-2.32c-0.05,-1.58 -0.1,-3.17 -0.18,-4.75c-0.03,-0.74 -0.07,-1.48 -0.12,-2.22c-0.06,-1.19 -0.14,-2.38 -0.23,-3.57l-0.09,-1.17c-0.12,-1.6 -0.27,-3.19 -0.44,-4.78c-0.08,-0.74 -0.16,-1.48 -0.24,-2.21l-0.15,-1.17l-0.16,-1.31c-0.1,-0.72 -0.2,-1.44 -0.31,-2.16c-0.11,-0.77 -0.23,-1.54 -0.35,-2.31l-0.2,-1.16c-0.13,-0.76 -0.27,-1.53 -0.41,-2.29c-0.14,-0.77 -0.29,-1.53 -0.45,-2.3c-0.94,-4.57 -2.11,-9.09 -3.58,-13.54c-0.24,-0.74 -0.49,-1.48 -0.75,-2.21c-0.39,-1.11 -0.8,-2.21 -1.23,-3.3c-1.14,-2.92 -2.42,-5.8 -3.85,-8.64c-2.6,-5.17 -6.05,-10.31 -10.25,-14.7l-1.02,-1.04c-2.42,-2.39 -5.08,-4.52 -7.95,-6.27l-0.62,-0.37c-1.87,-1.09 -3.83,-2.02 -5.88,-2.75l-0.68,-0.24c-0.51,-0.17 -1.02,-0.32 -1.54,-0.47c-1.12,-0.31 -2.27,-0.57 -3.44,-0.76l-0.83,-0.12l-1.32,-0.15c-0.52,-0.05 -1.06,-0.08 -1.59,-0.1l-1.33,-0.03c-2.43,0 -4.79,0.28 -7.1,0.78l-1.25,0.3c-0.63,0.16 -1.25,0.34 -1.86,0.53l-0.61,0.2c-1.02,0.34 -2.02,0.72 -3.02,1.13l-0.59,0.26c-2.96,1.29 -5.79,2.91 -8.5,4.74l-0.54,0.37c-0.53,0.37 -1.07,0.75 -1.59,1.14l-0.53,0.39c-1.22,0.91 -2.41,1.86 -3.57,2.84l-0.5,0.41c-0.65,0.56 -1.3,1.13 -1.94,1.7l-0.95,0.87c-0.63,0.58 -1.25,1.16 -1.86,1.74l-0.45,0.44c-24.58,23.8 -42.35,53.11 -51.2,84.44c4.76,-20.66 9.52,-41.43 13.12,-62.3c0.23,-1.39 0.47,-2.78 0.7,-4.17c0.34,-2.09 0.67,-4.18 0.99,-6.27c0.21,-1.39 0.42,-2.79 0.61,-4.18c0.2,-1.39 0.39,-2.79 0.58,-4.18c1.11,-8.37 1.98,-16.76 2.53,-25.16c0.27,-4.2 0.47,-8.41 0.57,-12.61c0.03,-1.41 0.06,-2.81 0.07,-4.21c0.03,-2.81 0.02,-5.62 -0.04,-8.43c-0.01,-0.7 -0.03,-1.41 -0.05,-2.11c-0.1,-3.51 -0.27,-7.04 -0.52,-10.56c-0.11,-1.41 -0.22,-2.82 -0.35,-4.23c-0.06,-0.7 -0.13,-1.4 -0.2,-2.11c-3.92,-39.43 -18.02,-78.5 -46.71,-108.51l-0.32,-0.33c-0.85,-0.88 -1.72,-1.72 -2.61,-2.53l-1.15,-1.03c-2.37,-2.04 -4.87,-3.85 -7.48,-5.43c-0.81,-0.48 -1.63,-0.95 -2.46,-1.39c-1.01,-0.55 -2.04,-1.06 -3.08,-1.53c-1.78,-0.82 -3.6,-1.54 -5.44,-2.16l-0.77,-0.25c-1.66,-0.54 -3.33,-0.99 -5.03,-1.37c-1.35,-0.3 -2.71,-0.55 -4.07,-0.75c-5.46,-0.79 -11.02,-0.79 -16.48,0c-3.19,0.47 -6.34,1.21 -9.42,2.22c-2.2,0.72 -4.36,1.58 -6.47,2.57c-2.53,1.2 -4.99,2.6 -7.35,4.2c-0.79,0.53 -1.56,1.08 -2.33,1.66c-0.76,0.57 -1.51,1.17 -2.25,1.79c-0.56,0.48 -1.12,0.97 -1.66,1.47c-0.89,0.81 -1.76,1.65 -2.61,2.53l-0.33,0.33c-0.51,0.54 -1.01,1.07 -1.51,1.61l-0.17,0.19l-1.27,1.38l-0.63,0.71l-0.78,0.88l-0.87,1l-0.5,0.58l-1.15,1.35l-0.16,0.2c-12.04,14.48 -21.06,30.72 -27.54,47.86c5.77,1.44 11.51,2.85 17.12,4.33z" fill="#116930" id="svg_3"/>
  <path d="m1406.01,1361.02c-0.03,-1.01 -0.07,-2.01 -0.11,-3.01l-0.02,-0.33c-0.03,-0.88 -0.07,-1.76 -0.11,-2.63l-0.02,-0.66c-0.04,-0.76 -0.07,-1.52 -0.11,-2.29l-0.04,-0.76c-0.04,-0.75 -0.07,-1.5 -0.11,-2.24l-0.04,-0.72c-0.04,-0.74 -0.08,-1.47 -0.12,-2.2l-0.05,-0.91c-0.04,-0.67 -0.08,-1.34 -0.12,-2l-0.06,-0.95c-0.04,-0.69 -0.09,-1.38 -0.13,-2.06l-0.06,-0.89c-0.04,-0.68 -0.09,-1.37 -0.14,-2.06l-0.06,-0.91c-0.05,-0.73 -0.11,-1.45 -0.16,-2.18l-0.05,-0.74c-0.23,-2.94 -0.47,-5.88 -0.73,-8.81l-0.07,-0.79c-0.06,-0.71 -0.13,-1.42 -0.19,-2.13l-0.09,-0.96c-0.06,-0.63 -0.12,-1.27 -0.18,-1.9l-0.12,-1.15c-0.06,-0.58 -0.11,-1.17 -0.17,-1.75l-0.12,-1.18c-0.06,-0.56 -0.12,-1.12 -0.18,-1.68l-0.14,-1.27c-0.06,-0.55 -0.12,-1.1 -0.18,-1.65l-0.13,-1.23c-0.06,-0.51 -0.12,-1.03 -0.18,-1.55l-0.17,-1.46l-0.13,-1.15c-0.07,-0.57 -0.14,-1.14 -0.21,-1.71l-0.16,-1.28l-0.19,-1.54c-0.11,-0.92 -0.23,-1.85 -0.35,-2.78c-0.09,-0.63 -0.17,-1.27 -0.26,-1.9l-0.11,-0.86c-0.09,-0.63 -0.17,-1.27 -0.26,-1.91l-0.13,-0.93c-0.09,-0.64 -0.18,-1.27 -0.27,-1.91l-0.12,-0.89c-0.09,-0.61 -0.18,-1.21 -0.27,-1.81l-0.15,-1.05c-0.09,-0.61 -0.18,-1.23 -0.28,-1.84l-0.13,-0.89c-0.1,-0.65 -0.2,-1.3 -0.3,-1.94l-0.13,-0.85c-0.1,-0.65 -0.21,-1.31 -0.31,-1.97l-0.12,-0.74c-0.11,-0.69 -0.22,-1.39 -0.34,-2.08l-0.1,-0.58c-0.12,-0.74 -0.24,-1.47 -0.36,-2.21l-0.05,-0.27c-1.05,-6.21 -2.19,-12.38 -3.42,-18.52l-0.02,-0.07c-38.71,-193.04 -165.87,-353.4 -386.06,-384.21c65.41,63.93 146.27,112.4 210.93,177.06c50.61,54.36 73.04,116.68 75.31,181.16c40.57,112.99 27.24,256 -5.51,366.96c-1.81,6.31 -11.63,4.48 -10.79,-2.19c1.97,-16.63 4.88,-33.02 7.07,-49.5c10.65,-81.21 15.87,-164.16 6.45,-245.73c-0.31,-2.45 -0.63,-4.91 -0.95,-7.38c-17.04,113.64 -87.49,228.22 -169.09,313.08c-86.04,86.04 -11.47,240.91 -40.15,355.63c-17.21,74.57 -137.66,143.4 -212.23,108.98c-29.75,-14.87 -58.43,-32.96 -85.11,-53.8c-50.59,-39.52 -114.34,-55.63 -178.47,-52.73c-1.78,0.08 -3.56,0.1 -5.33,0.04c12.58,27.02 25.79,53.75 39.74,80.1c0.46,0.88 0.93,1.77 1.4,2.65c0.6,1.13 1.21,2.26 1.81,3.39c1.13,2.11 2.26,4.21 3.4,6.31l0.3,0.56c2.52,4.66 5.06,9.39 7.63,14.2c5.15,9.6 10.4,19.47 15.79,29.48c1.01,1.88 2.03,3.76 3.05,5.65c0.68,1.26 1.36,2.52 2.04,3.78c1.03,1.9 2.06,3.79 3.1,5.69c0.69,1.27 1.38,2.54 2.08,3.81c1.74,3.17 3.49,6.35 5.26,9.54c0.71,1.27 1.42,2.55 2.13,3.82c1.07,1.92 2.14,3.83 3.22,5.74c0.36,0.64 0.72,1.28 1.09,1.92c1.08,1.91 2.17,3.82 3.26,5.74c1.1,1.91 2.2,3.82 3.31,5.73c0.74,1.27 1.48,2.55 2.22,3.82c0.38,0.63 0.75,1.27 1.12,1.91c0.75,1.27 1.5,2.54 2.25,3.8s1.51,2.54 2.26,3.8c0.76,1.27 1.52,2.53 2.29,3.8c0.76,1.26 1.53,2.52 2.3,3.78c0.77,1.25 1.54,2.51 2.31,3.77c0.78,1.25 1.56,2.5 2.34,3.75c0.78,1.25 1.57,2.5 2.35,3.74c1.82,2.87 3.65,5.72 5.5,8.55c1.63,2.5 3.27,4.99 4.92,7.46c1.9,2.82 3.8,5.63 5.73,8.41c0.7,1.01 1.41,2.02 2.12,3.03c0.42,0.6 0.84,1.19 1.26,1.79c18.48,26.12 38.63,50.06 60.94,69.43c5.37,4.67 10.87,8.85 16.49,12.58l0.91,0.6c2.07,1.35 4.15,2.64 6.24,3.87l1.36,0.79c5.87,3.36 11.86,6.26 17.93,8.71c1.87,0.76 3.75,1.47 5.63,2.15c3.3,1.17 6.62,2.22 9.96,3.15l1.43,0.39c1.92,0.51 3.84,0.98 5.76,1.41l1.45,0.32c0.88,0.19 1.76,0.37 2.65,0.54c1.13,0.22 2.26,0.43 3.39,0.62c0.81,0.14 1.62,0.27 2.43,0.4c0.57,0.08 1.13,0.17 1.69,0.25l1.46,0.2c3.9,0.52 7.81,0.89 11.73,1.11l1.47,0.08c1.48,0.07 2.95,0.12 4.43,0.15l1.47,0.03c1.48,0.02 2.96,0.01 4.43,-0.01c0.99,-0.01 1.98,-0.03 2.96,-0.07c1.48,-0.04 2.96,-0.11 4.45,-0.19c0.98,-0.06 1.97,-0.13 2.96,-0.2c1.48,-0.11 2.96,-0.24 4.45,-0.39l1.48,-0.15c1.48,-0.16 2.96,-0.34 4.45,-0.53c0.99,-0.13 1.98,-0.27 2.96,-0.42c3.46,-0.51 6.92,-1.12 10.37,-1.82c0.99,-0.2 1.97,-0.41 2.96,-0.63c0.98,-0.21 1.97,-0.44 2.95,-0.67c1.48,-0.34 2.95,-0.71 4.42,-1.09l1.48,-0.38c0.98,-0.26 1.96,-0.53 2.94,-0.8c0.98,-0.28 1.96,-0.56 2.93,-0.85l1.47,-0.43c0.98,-0.3 1.95,-0.6 2.93,-0.91l1.46,-0.47c1.46,-0.48 2.92,-0.97 4.37,-1.47c2.92,-1.01 5.82,-2.08 8.7,-3.21c0.97,-0.38 1.93,-0.76 2.89,-1.15c1.29,-0.53 2.59,-1.06 3.88,-1.61c1.72,-0.74 3.44,-1.49 5.16,-2.27c1.75,-0.79 3.49,-1.6 5.23,-2.43c0.94,-0.45 1.88,-0.9 2.82,-1.37c3.46,-1.7 6.88,-3.48 10.28,-5.33c3.53,-1.93 7.02,-3.94 10.48,-6.02c0.91,-0.54 1.81,-1.09 2.71,-1.65l1.35,-0.84c2.24,-1.4 4.47,-2.83 6.67,-4.29c0.74,-0.49 1.48,-0.98 2.21,-1.48c0.59,-0.39 1.17,-0.78 1.75,-1.18c0.57,-0.39 1.14,-0.79 1.7,-1.18l1.45,-1.01c0.69,-0.48 1.37,-0.97 2.06,-1.46c1.29,-0.93 2.58,-1.86 3.86,-2.81c0.85,-0.63 1.7,-1.26 2.54,-1.9c5.14,-3.88 10.15,-7.91 15.02,-12.08c0.69,-0.6 1.38,-1.19 2.07,-1.79c7.98,-6.96 15.58,-14.29 22.7,-21.89l0.13,-0.14c1.37,-1.45 2.71,-2.92 4.03,-4.39l0.21,-0.23c0.62,-0.68 1.23,-1.37 1.83,-2.05l0.24,-0.28c0.6,-0.67 1.19,-1.35 1.77,-2.03l1.29,-1.5c0.89,-1.04 1.77,-2.09 2.65,-3.15l0.33,-0.4c1.18,-1.43 2.34,-2.86 3.48,-4.3c0.76,-0.96 1.52,-1.93 2.27,-2.9c2.31,-2.99 4.55,-6.01 6.7,-9.05l0.51,-0.71c0.4,-0.57 0.8,-1.14 1.19,-1.71c1.03,-1.48 2.04,-2.97 3.03,-4.47c0.36,-0.54 0.71,-1.07 1.06,-1.62l0.57,-0.86c2.18,-3.38 4.27,-6.79 6.25,-10.2l0.6,-1.06c0.98,-1.71 1.93,-3.42 2.86,-5.14l0.62,-1.16c1,-1.89 1.98,-3.79 2.91,-5.69c66.26,-134.26 124.1,-273.44 185.98,-409.79c10,-22.04 19.59,-43.96 28.59,-65.87c2.04,-4.98 4.06,-9.96 6.04,-14.95c0.4,-0.99 0.79,-1.99 1.18,-2.98c0.79,-2 1.57,-3.99 2.35,-5.98c0.78,-2 1.55,-3.99 2.31,-5.98c0.39,-1 0.77,-2 1.15,-2.99c0.76,-2 1.51,-3.99 2.26,-5.99c0.75,-2 1.49,-3.99 2.23,-5.99c1.11,-2.99 2.2,-5.99 3.28,-8.99c0.72,-2 1.43,-4 2.14,-6c0.35,-1 0.7,-2 1.05,-3c0.7,-2 1.4,-4 2.08,-6c1.04,-3.01 2.05,-6.02 3.05,-9.02c0.34,-1.01 0.67,-2.01 1,-3.02c0.99,-3.01 1.97,-6.02 2.93,-9.04c0.64,-2.01 1.28,-4.02 1.9,-6.04c0.32,-1 0.63,-2.01 0.94,-3.02c0.62,-2.01 1.23,-4.03 1.84,-6.05c0.3,-1.01 0.6,-2.02 0.9,-3.03c0.6,-2.02 1.19,-4.04 1.77,-6.06c0.59,-2.02 1.16,-4.05 1.73,-6.08c1.42,-5.06 2.8,-10.14 4.12,-15.23c0.33,-1.28 0.66,-2.55 0.99,-3.83c0.71,-2.8 1.41,-5.6 2.09,-8.41c0.25,-1.02 0.5,-2.04 0.74,-3.07c0.49,-2.04 0.97,-4.09 1.45,-6.14c1.6,-6.98 3.11,-13.97 4.52,-21l0.23,-1.14c2.64,-13.27 4.91,-26.66 6.78,-40.17c0.14,-1.05 0.29,-2.11 0.43,-3.16c0.26,-1.99 0.52,-3.99 0.77,-5.98c0.14,-1.18 0.29,-2.36 0.43,-3.53c1.88,-15.85 3.21,-31.88 3.92,-48.15l0.01,-0.27c0.7,-16.27 0.79,-32.76 0.2,-49.52z" fill="#EE9A41" id="svg_4" transform="matrix(1 0 0 1 0 0)"/>
  <path d="m1131.78,2011.16c-2.9,-0.97 -6.03,0.59 -7,3.49c-10.07,30 -22.19,58.99 -36.89,86.33c-42.67,81.77 -120.83,146.38 -212.84,161.68c-7.1,0.63 -6.64,10.95 0.39,11.03c33.55,-0.41 65.59,-9.48 95.55,-23.65c90.54,-42.43 148.02,-136.34 164.48,-232.66c0.48,-2.66 -1.05,-5.34 -3.69,-6.22z" fill="#E38E34" id="svg_5"/>
  <path d="m879.48,2209.47c25.44,0.32 49.61,-6.26 72.26,-16.85c68.72,-31.4 111.46,-102.32 122.86,-175.24c1.24,-6.77 -8.49,-9.15 -10.69,-2.73c-10.68,26.85 -21.86,53.8 -37.23,78.25c-32.56,52.82 -86.21,93.4 -147.6,105.55c-2.76,0.31 -5.01,2.54 -5.04,5.45c-0.04,3.04 2.39,5.54 5.44,5.57z" fill="#E38E34" id="svg_6"/>
  <path d="m1202.56,989.09c-5.63,-4.22 -11.95,3.94 -7.08,8.41c15.04,14.03 29.05,30.29 41.5,47.16c12.03,16.18 24.19,34.83 33.86,52.59c45.84,82.28 68.22,176.33 72.05,270.05c2.17,30.82 0.66,64.68 0.37,95.43c0.01,2.73 2.03,5.09 4.81,5.44c3.02,0.39 5.78,-1.75 6.16,-4.77c1.36,-10.63 2.61,-21.31 3.72,-32.01c18.52,-157.02 -27.12,-340.73 -155.39,-442.3z" fill="#E38E34" id="svg_7" transform="matrix(1 0 0 1 0 0)"/>
  <path d="m1271.14,1202.32c9.67,28.09 15.07,58.41 18.99,88.14c0.32,2.46 0.64,4.92 0.95,7.38c9.42,81.57 4.2,164.52 -6.45,245.72c-2.19,16.49 -5.1,32.88 -7.07,49.51c-0.85,6.67 8.98,8.5 10.79,2.18c32.75,-110.96 46.07,-253.96 5.51,-366.96c-3.79,-10.54 -8.04,-20.82 -12.79,-30.79c-3.4,-6.21 -12.61,-1.45 -9.93,4.82z" fill="#E38E34" id="svg_8" transform="matrix(1 0 0 1 0 0)"/>
  <path d="m757.38,968.28c2.68,-1.18 4.04,-4.27 2.96,-7.06c-1.09,-2.84 -4.28,-4.26 -7.13,-3.16c-26.82,10.52 -51.08,24.93 -74.74,41.02c-175.14,120.9 -224.86,334.27 -171.18,532.86c1.92,7.03 11.98,4.16 10.79,-2.31c-17.09,-101.55 -18.2,-207.27 16.29,-304.96c37.73,-109.56 120.53,-202.92 223.01,-256.39z" fill="#F8B367" id="svg_9"/>
  <path d="m717.82,1068.1c-9.08,3.4 -17.02,7.53 -24.94,12.28c-87.77,52.44 -133.83,154.66 -142.26,253.69c-3.5,36.07 -2.35,72.31 2.25,107.85c0.35,2.71 2.66,4.82 5.47,4.82c3.05,0 5.53,-2.47 5.54,-5.52c0.08,-35.29 2.1,-70.34 6.97,-104.78c13.57,-101.07 60.78,-204.86 151.2,-258.15c2.56,-1.22 3.9,-4.2 2.86,-6.95c-1.06,-2.86 -4.24,-4.3 -7.09,-3.24z" fill="#F8B367" id="svg_10"/>
  <path d="m590.24,1703.12c-4.28,-18.78 -8.79,-39.17 -12.03,-58.15c-8.81,-48.19 -13.5,-97.82 -11.94,-146.74c0.28,-2.62 -1.3,-5.19 -3.96,-5.96c-2.93,-0.85 -6,0.84 -6.85,3.77c-5.93,20.38 -7.86,40.8 -8.44,61.45c-1.11,51.38 8.58,102.83 27.07,150.66c3.82,9.49 8.04,18.82 12.52,27.99c1.08,2.19 3.52,3.49 6.03,3.01c3.01,-0.58 4.98,-3.49 4.4,-6.49c-1.92,-10.02 -4.62,-19.72 -6.8,-29.54z" fill="#F8B367" id="svg_11"/>
  <path d="m1068.13,845.67c-4.31,2.78 -0.51,9.38 4.04,7.22c90.81,-42.71 127.81,-153.15 119.33,-247.82c-0.48,-5.2 -8.34,-4.64 -8.26,0.46c-4.76,90.69 -35.41,188.39 -115.11,240.14z" fill="#0A5528" id="svg_12"/>
  <path d="m1072.66,778.43c-3.99,2.83 -0.43,9.15 4.05,7.22c52.92,-24.08 73.56,-88.83 72.39,-143.23c-0.2,-4.87 -7.49,-5.26 -8.27,-0.47c-11.44,49.9 -26.28,103.46 -68.17,136.48z" fill="#0A5528" id="svg_13"/>
  <path d="m1073.86,549.89c33.15,-55.09 40.41,-123.46 30.77,-186.22c-0.85,-4.88 -8.23,-4.17 -8.24,0.72c-2.86,61.79 -9.23,123.31 -29.94,181.83c-1.79,4.61 4.83,7.85 7.41,3.67z" fill="#0A5528" id="svg_14"/>
  <path d="m905.83,145.99c-15.97,14.98 -27.46,32.9 -35.26,52.43c-17.26,43.29 -16.38,94.51 -5.97,139.16c2.74,9.22 5.29,18.45 8.34,27.49c0.61,1.81 2.41,3.01 4.38,2.8c2.4,-0.25 4.04,-2.52 3.63,-4.87c-4.7,-32.07 -8.46,-64.16 -6.85,-96.53c1.43,-21.32 4.89,-43.11 11.52,-63.71c5.87,-18.2 14.21,-35.48 25.82,-50.69c3.69,-3.76 -1.62,-9.48 -5.61,-6.08z" fill="#158A3E" id="svg_15"/>
  <path d="m730.09,794.63c1.37,1.33 3.52,1.58 5.17,0.49c2.02,-1.31 2.45,-4.08 1.02,-5.99c-15.91,-22.79 -32.05,-45.48 -44.07,-70.49c-20.02,-39.95 -32.71,-86.53 -24.9,-131.15c1.57,-5.04 -5.76,-7.7 -7.77,-2.86c-23.79,66.27 7.62,138.53 50.59,189.33c6.65,6.96 13.13,14.01 19.96,20.67z" fill="#158A3E" id="svg_16"/>
  <path d="m411.8,519.33c0,-154.7 130.02,-280 290.54,-280c160.52,0 290.54,125.3 290.54,280c0,154.7 -130.02,280 -290.54,280c-160.52,0 -290.54,-125.3 -290.54,-280z" fill="none" id="svg_27" transform="matrix(1 0 0 1 266.667 1620)"/>
  <path d="m658.46,1216c0,-154.7 130.02,-280 290.54,-280c160.52,0 290.54,125.3 290.54,280c0,154.7 -130.02,280 -290.54,280c-160.52,0 -290.54,-125.3 -290.54,-280z" fill="none" id="svg_26" transform="matrix(1 0 0 1 246.667 696.667)"/>
  <path d="m455.13,2009.33c0,-154.7 130.02,-280 290.54,-280c160.52,0 290.54,125.3 290.54,280c0,154.7 -130.02,280 -290.54,280c-160.52,0 -290.54,-125.3 -290.54,-280z" fill="none" id="svg_17" transform="matrix(1 0 0 1 0 36.6667)"/>
 </g>
</svg>